<mxfile host="app.diagrams.net" modified="2022-06-19T01:12:43.556Z" agent="5.0 (Macintosh; Intel Mac OS X 10_15_7) AppleWebKit/537.36 (KHTML, like Gecko) Chrome/102.0.5005.61 Safari/537.36" etag="0dgavIUIytdy7Q97-lU-" version="20.0.0" type="github">
  <diagram id="cfgrS_ykFPJLSnLUaXzq" name="Page-1">
    <mxGraphModel dx="1066" dy="560" grid="1" gridSize="10" guides="1" tooltips="1" connect="1" arrows="1" fold="1" page="1" pageScale="1" pageWidth="850" pageHeight="1100" math="0" shadow="0">
      <root>
        <mxCell id="0" />
        <mxCell id="1" parent="0" />
        <mxCell id="YPjN2e0MsZWWOv602ALj-1" value="" style="aspect=fixed;html=1;points=[];align=center;image;fontSize=12;image=img/lib/azure2/iot/IoT_Hub.svg;" vertex="1" parent="1">
          <mxGeometry x="200" y="150" width="80" height="80" as="geometry" />
        </mxCell>
        <mxCell id="YPjN2e0MsZWWOv602ALj-19" style="edgeStyle=orthogonalEdgeStyle;rounded=0;orthogonalLoop=1;jettySize=auto;html=1;exitX=1;exitY=0.5;exitDx=0;exitDy=0;exitPerimeter=0;" edge="1" parent="1" source="YPjN2e0MsZWWOv602ALj-2">
          <mxGeometry relative="1" as="geometry">
            <mxPoint x="190" y="180" as="targetPoint" />
          </mxGeometry>
        </mxCell>
        <mxCell id="YPjN2e0MsZWWOv602ALj-2" value="" style="verticalLabelPosition=bottom;html=1;verticalAlign=top;align=center;strokeColor=none;fillColor=#00BEF2;shape=mxgraph.azure.mobile;pointerEvents=1;" vertex="1" parent="1">
          <mxGeometry x="50" y="70" width="40" height="50" as="geometry" />
        </mxCell>
        <mxCell id="YPjN2e0MsZWWOv602ALj-17" style="edgeStyle=orthogonalEdgeStyle;rounded=0;orthogonalLoop=1;jettySize=auto;html=1;exitX=1;exitY=0.5;exitDx=0;exitDy=0;exitPerimeter=0;entryX=-0.05;entryY=0.475;entryDx=0;entryDy=0;entryPerimeter=0;" edge="1" parent="1" source="YPjN2e0MsZWWOv602ALj-3" target="YPjN2e0MsZWWOv602ALj-1">
          <mxGeometry relative="1" as="geometry" />
        </mxCell>
        <mxCell id="YPjN2e0MsZWWOv602ALj-3" value="" style="verticalLabelPosition=bottom;html=1;verticalAlign=top;align=center;strokeColor=none;fillColor=#00BEF2;shape=mxgraph.azure.mobile;pointerEvents=1;" vertex="1" parent="1">
          <mxGeometry x="50" y="230" width="40" height="60" as="geometry" />
        </mxCell>
        <mxCell id="YPjN2e0MsZWWOv602ALj-21" style="edgeStyle=orthogonalEdgeStyle;rounded=0;orthogonalLoop=1;jettySize=auto;html=1;exitX=1;exitY=0.5;exitDx=0;exitDy=0;exitPerimeter=0;" edge="1" parent="1" source="YPjN2e0MsZWWOv602ALj-4">
          <mxGeometry relative="1" as="geometry">
            <mxPoint x="190" y="180" as="targetPoint" />
          </mxGeometry>
        </mxCell>
        <mxCell id="YPjN2e0MsZWWOv602ALj-4" value="" style="verticalLabelPosition=bottom;html=1;verticalAlign=top;align=center;strokeColor=none;fillColor=#00BEF2;shape=mxgraph.azure.mobile;pointerEvents=1;" vertex="1" parent="1">
          <mxGeometry x="30" y="150" width="40" height="60" as="geometry" />
        </mxCell>
        <mxCell id="YPjN2e0MsZWWOv602ALj-27" style="edgeStyle=orthogonalEdgeStyle;rounded=0;orthogonalLoop=1;jettySize=auto;html=1;exitX=1;exitY=0.5;exitDx=0;exitDy=0;exitPerimeter=0;entryX=-0.02;entryY=0.5;entryDx=0;entryDy=0;entryPerimeter=0;" edge="1" parent="1" source="YPjN2e0MsZWWOv602ALj-5" target="YPjN2e0MsZWWOv602ALj-6">
          <mxGeometry relative="1" as="geometry">
            <Array as="points">
              <mxPoint x="331" y="180" />
              <mxPoint x="370" y="180" />
              <mxPoint x="370" y="114" />
            </Array>
          </mxGeometry>
        </mxCell>
        <mxCell id="YPjN2e0MsZWWOv602ALj-31" style="edgeStyle=orthogonalEdgeStyle;rounded=0;orthogonalLoop=1;jettySize=auto;html=1;exitX=1;exitY=0.5;exitDx=0;exitDy=0;exitPerimeter=0;entryX=-0.08;entryY=0.521;entryDx=0;entryDy=0;entryPerimeter=0;" edge="1" parent="1" source="YPjN2e0MsZWWOv602ALj-5" target="YPjN2e0MsZWWOv602ALj-7">
          <mxGeometry relative="1" as="geometry">
            <Array as="points">
              <mxPoint x="331" y="200" />
              <mxPoint x="370" y="200" />
              <mxPoint x="370" y="267" />
            </Array>
          </mxGeometry>
        </mxCell>
        <mxCell id="YPjN2e0MsZWWOv602ALj-5" value="" style="sketch=0;points=[[0.015,0.015,0],[0.985,0.015,0],[0.985,0.985,0],[0.015,0.985,0],[0.25,0,0],[0.5,0,0],[0.75,0,0],[1,0.25,0],[1,0.5,0],[1,0.75,0],[0.75,1,0],[0.5,1,0],[0.25,1,0],[0,0.75,0],[0,0.5,0],[0,0.25,0]];verticalLabelPosition=bottom;html=1;verticalAlign=top;aspect=fixed;align=center;pointerEvents=1;shape=mxgraph.cisco19.rect;prIcon=content_router;fillColor=#FAFAFA;strokeColor=#005073;" vertex="1" parent="1">
          <mxGeometry x="280" y="169" width="51.2" height="40" as="geometry" />
        </mxCell>
        <mxCell id="YPjN2e0MsZWWOv602ALj-6" value="" style="sketch=0;aspect=fixed;html=1;points=[];align=center;image;fontSize=12;image=img/lib/mscae/Dedicated_Event_Hub.svg;" vertex="1" parent="1">
          <mxGeometry x="400" y="90" width="50" height="48" as="geometry" />
        </mxCell>
        <mxCell id="YPjN2e0MsZWWOv602ALj-7" value="" style="sketch=0;aspect=fixed;html=1;points=[];align=center;image;fontSize=12;image=img/lib/mscae/Dedicated_Event_Hub.svg;" vertex="1" parent="1">
          <mxGeometry x="410" y="242" width="50" height="48" as="geometry" />
        </mxCell>
        <mxCell id="YPjN2e0MsZWWOv602ALj-10" value="" style="aspect=fixed;perimeter=ellipsePerimeter;html=1;align=center;shadow=0;dashed=0;fontColor=#4277BB;labelBackgroundColor=#ffffff;fontSize=12;spacingTop=3;image;image=img/lib/ibm/applications/microservice.svg;" vertex="1" parent="1">
          <mxGeometry x="520" y="90" width="82.2" height="60" as="geometry" />
        </mxCell>
        <mxCell id="YPjN2e0MsZWWOv602ALj-11" value="" style="aspect=fixed;perimeter=ellipsePerimeter;html=1;align=center;shadow=0;dashed=0;fontColor=#4277BB;labelBackgroundColor=#ffffff;fontSize=12;spacingTop=3;image;image=img/lib/ibm/applications/microservice.svg;" vertex="1" parent="1">
          <mxGeometry x="560" y="242" width="82.2" height="60" as="geometry" />
        </mxCell>
        <mxCell id="YPjN2e0MsZWWOv602ALj-32" value="IoT Hub" style="text;html=1;strokeColor=none;fillColor=none;align=center;verticalAlign=middle;whiteSpace=wrap;rounded=0;" vertex="1" parent="1">
          <mxGeometry x="210" y="230" width="60" height="20" as="geometry" />
        </mxCell>
        <mxCell id="YPjN2e0MsZWWOv602ALj-35" value="IoT Hub Message Routing" style="text;html=1;strokeColor=none;fillColor=none;align=center;verticalAlign=middle;whiteSpace=wrap;rounded=0;" vertex="1" parent="1">
          <mxGeometry x="273.4" y="208" width="64.4" height="50" as="geometry" />
        </mxCell>
        <mxCell id="YPjN2e0MsZWWOv602ALj-37" value="Activation Event Hub" style="text;html=1;strokeColor=none;fillColor=none;align=center;verticalAlign=middle;whiteSpace=wrap;rounded=0;" vertex="1" parent="1">
          <mxGeometry x="405" y="139" width="60" height="20" as="geometry" />
        </mxCell>
        <mxCell id="YPjN2e0MsZWWOv602ALj-38" value="Telemetry Event Hub" style="text;html=1;strokeColor=none;fillColor=none;align=center;verticalAlign=middle;whiteSpace=wrap;rounded=0;" vertex="1" parent="1">
          <mxGeometry x="410" y="270" width="60" height="68" as="geometry" />
        </mxCell>
        <mxCell id="YPjN2e0MsZWWOv602ALj-40" value="Listener Service" style="text;html=1;strokeColor=none;fillColor=none;align=center;verticalAlign=middle;whiteSpace=wrap;rounded=0;" vertex="1" parent="1">
          <mxGeometry x="520" y="150" width="60" height="30" as="geometry" />
        </mxCell>
        <mxCell id="YPjN2e0MsZWWOv602ALj-41" value="" style="aspect=fixed;html=1;points=[];align=center;image;fontSize=12;image=img/lib/azure2/databases/Azure_Cosmos_DB.svg;" vertex="1" parent="1">
          <mxGeometry x="569.1" y="360" width="64" height="64" as="geometry" />
        </mxCell>
        <mxCell id="YPjN2e0MsZWWOv602ALj-42" value="NoSQL DB Cosmos DB" style="text;html=1;strokeColor=none;fillColor=none;align=center;verticalAlign=middle;whiteSpace=wrap;rounded=0;" vertex="1" parent="1">
          <mxGeometry x="573.1" y="440" width="60" height="20" as="geometry" />
        </mxCell>
      </root>
    </mxGraphModel>
  </diagram>
</mxfile>
